<?xml version="1.0" encoding="UTF-8" standalone="no"?>
<!-- Created with Inkscape (http://www.inkscape.org/) -->
<svg xmlns:svg="http://www.w3.org/2000/svg" xmlns="http://www.w3.org/2000/svg" xmlns:xlink="http://www.w3.org/1999/xlink" version="1.1" width="724.80103" height="344.79562" id="svg2">
  <defs id="defs4">
    <linearGradient x1="291.24033" y1="413.93048" x2="235.47798" y2="372.0011" id="linearGradient4118" xlink:href="#linearGradient3933-9" gradientUnits="userSpaceOnUse" gradientTransform="matrix(2.7140156,0,0,2.7140156,-398.37476,-574.09776)"/>
    <linearGradient id="linearGradient3933-9">
      <stop id="stop3935-8" style="stop-color:#d5c3b5;stop-opacity:1" offset="0"/>
      <stop id="stop3937-2" style="stop-color:#5e4432;stop-opacity:1" offset="1"/>
    </linearGradient>
    <filter x="-0.34289581" y="-0.37890014" width="1.6857916" height="1.7578003" color-interpolation-filters="sRGB" id="filter3929-4">
      <feGaussianBlur id="feGaussianBlur3931-5" stdDeviation="0.16771313"/>
    </filter>
  </defs>
  <g transform="translate(-158.24814,-359.31572)" id="layer1">
    <g transform="matrix(1.1223074,0,0,1.1223074,209.51693,42.927312)" id="g4120">
      <path d="m 527.40611,375.60667 c 20.10383,6.03114 71.36857,13.06747 71.36857,7.03633 0,-6.03114 -4.02076,-13.06749 -23.11939,-19.09863 -19.09864,-6.03114 -34.35993,-15.73676 -48.24918,-29.15054 -14.14593,-13.66168 -14.87839,-31.44619 -29.15053,-41.21282 -37.24292,-25.48588 -99.10388,0.85989 -107.55544,48.24915 -4.67266,26.20043 2.89363,78.67839 2.72116,89.97939 -0.17234,11.301 -2.72116,27.62797 -8.7523,29.63835 -6.03114,2.01038 -28.49027,-12.1738 -57.89516,-22.46961 -29.40492,-10.29578 -81.18644,-11.78311 -133.77052,-7.09728 -52.58408,4.6858 -144.068115,5.14789 -149.094064,10.17384 5.280334,3.95977 42.590015,4.63551 57.295884,10.34631 14.70586,5.71081 20.04284,11.24005 20.04284,11.24005 0,0 -23.58618,7.83897 -35.648541,11.46299 -29.53731,8.87426 -47.843264,31.62781 -55.640902,37.84188 -9.723558,7.74889 -43.721326,6.98682 -49.843168,10.9961 -6.325556,4.14273 -17.403598,4.8535 -24.439955,4.8535 6.113076,4.97544 4.985918,6.26457 10.661685,7.68612 -3.919717,1.77695 -4.416192,2.71073 -8.762769,5.55383 6.944596,1.81073 28.389254,-1.99993 41.1013504,7.86907 14.5974956,11.33272 54.9645696,23.34547 64.3322116,25.12977 21.108989,4.02076 134.695588,14.07266 163.846128,13.06747 29.15053,-1.00519 207.46312,-19.34648 226.16796,-27.14015 18.70483,-7.79368 55.4903,-15.6533 59.30628,-27.14016 6.39412,-19.2475 1.39265,-51.44628 -27.14015,-79.41009 -11.1679,-10.94519 -24.12459,-49.25433 -20.10383,-61.31664 4.02076,-12.06228 10.0519,-20.10382 24.12459,-20.10382 14.07266,0 40.20762,4.02078 38.19724,3.01559 z" id="path3775-9" style="fill:url(#linearGradient4118);fill-opacity:1;stroke:#000000;stroke-width:2.71401548px;stroke-linecap:butt;stroke-linejoin:miter;stroke-opacity:1"/>
      <path d="m 432.74277,322.64265 c 15.24628,-11.25066 81.26455,-19.38079 83.65291,14.84406 -7.57042,1.68231 -22.22144,-11.98962 -39.74595,-14.91585 -19.49588,-3.25541 -43.53264,0.25892 -43.90696,0.0717 z" id="path3779-9" style="fill:#8f755b;fill-opacity:1;stroke:none"/>
      <path d="m 467.70743,319.71729 c 3.90927,3.02078 15.68652,6.91567 18.12482,-1.06617 -2.13234,-7.10777 -14.92632,-4.44233 -18.12482,1.06617 z" id="path3777-8" style="fill:#000000;fill-opacity:1;stroke:#363636;stroke-width:2.71401548px;stroke-linecap:butt;stroke-linejoin:miter;stroke-opacity:1"/>
      <path d="m 501.11398,359.16544 c 4.58921,5.97021 13.32256,12.49978 24.52181,15.6371" id="path3791-3" style="fill:none;stroke:#000000;stroke-width:2.71401548px;stroke-linecap:round;stroke-linejoin:miter;stroke-opacity:1"/>
      <path d="m 529.18968,349.56995 7.10777,-0.3554" id="path3793-8" style="fill:none;stroke:#474747;stroke-width:2.71401548px;stroke-linecap:round;stroke-linejoin:round;stroke-opacity:1"/>
      <path d="m 541.27289,347.08223 c 4.26467,8.88471 0.71077,7.10777 -5.33082,9.59549 -6.04161,2.48772 -6.39701,11.72783 3.90927,11.72783 10.30626,0 35.18347,-4.62004 35.18347,-4.62004 -13.35464,-2.8827 -24.14706,-9.14588 -33.76192,-16.70328 z" id="path3795-6" style="fill:#574c55;fill-opacity:1;stroke:none"/>
      <path d="M 258.91965,492.45305 C 216.56247,495.58307 127.4751,446.89694 119.23263,436.96096" id="path3845-9" style="fill:none;stroke:#000000;stroke-width:2.71401548px;stroke-linecap:round;stroke-linejoin:miter;stroke-opacity:1"/>
      <path d="m 322.6267,356.88201 c -0.0287,0.70725 1.17985,0.70112 1.17333,-0.008 -0.007,-0.70911 -1.14467,-0.69927 -1.17333,0.008 z" transform="matrix(2.7140156,0,0,2.7140156,-398.37476,-651.07317)" id="path3777-1-8" style="fill:#ffffff;fill-opacity:1;stroke:none;filter:url(#filter3929-4)"/>
    </g>
  </g>
</svg>